<svg width="16" height="16" viewBox="0 0 16 16" fill="none" xmlns="http://www.w3.org/2000/svg">
<g clip-path="url(#clip0_1_226)">
<path fill-rule="evenodd" clip-rule="evenodd" d="M6.97368 0.833313H9.02616C10.0951 0.833309 10.9331 0.833306 11.6025 0.896958C12.2849 0.961838 12.8436 1.09636 13.3362 1.39819C13.852 1.71427 14.2856 2.14794 14.6017 2.66373C14.9035 3.15628 15.0381 3.71502 15.1029 4.39738C15.1666 5.06684 15.1666 5.90481 15.1666 6.97373V7.68521C15.1666 8.44607 15.1666 9.04262 15.1337 9.52453C15.1003 10.0148 15.0311 10.4229 14.8748 10.8003C14.4857 11.7395 13.7395 12.4858 12.8002 12.8749C12.2636 13.0971 11.6523 13.1465 10.8155 13.1609C10.5227 13.1659 10.3373 13.1696 10.196 13.1853C10.0639 13.1999 10.0127 13.2213 9.98274 13.2388C9.95114 13.2571 9.90808 13.2906 9.83332 13.3932C9.75241 13.5042 9.66099 13.6576 9.51603 13.9025L9.15463 14.5131C8.63891 15.3844 7.3609 15.3844 6.84518 14.5131L6.48378 13.9025C6.33882 13.6576 6.2474 13.5042 6.16649 13.3932C6.09173 13.2906 6.04867 13.2571 6.01707 13.2388C5.98711 13.2213 5.93591 13.1999 5.80384 13.1853C5.6625 13.1696 5.47709 13.1659 5.18436 13.1609C4.3475 13.1465 3.73628 13.0971 3.19963 12.8749C2.26036 12.4858 1.51411 11.7395 1.12505 10.8003C0.968738 10.4229 0.899583 10.0148 0.866129 9.52453C0.833248 9.04262 0.83325 8.44607 0.833252 7.6852L0.833252 6.97374C0.833248 5.90482 0.833244 5.06684 0.896897 4.39738C0.961777 3.71502 1.0963 3.15628 1.39813 2.66374C1.71421 2.14794 2.14788 1.71427 2.66367 1.39819C3.15622 1.09636 3.71496 0.961838 4.39732 0.896958C5.06678 0.833306 5.90476 0.833309 6.97368 0.833313ZM4.49198 1.89247C3.88281 1.95039 3.49519 2.06147 3.18617 2.25083C2.80493 2.48446 2.4844 2.80499 2.25077 3.18623C2.06141 3.49525 1.95033 3.88287 1.89241 4.49204C1.83378 5.10865 1.83325 5.89915 1.83325 6.99998V7.66665C1.83325 8.45006 1.83352 9.01257 1.86381 9.45646C1.89379 9.89586 1.9515 10.1824 2.04893 10.4176C2.33649 11.1118 2.88807 11.6634 3.58232 11.951C3.92607 12.0934 4.36463 12.1466 5.20158 12.161L5.2228 12.1614C5.48813 12.1659 5.72064 12.1699 5.9139 12.1913C6.12156 12.2143 6.32465 12.2608 6.51983 12.3743C6.71335 12.4869 6.85294 12.6373 6.97462 12.8042C7.08707 12.9585 7.20262 13.1537 7.3335 13.3749L7.70573 14.0038C7.83424 14.2209 8.16557 14.2209 8.29408 14.0038L8.66631 13.3749C8.79719 13.1537 8.91274 12.9585 9.02518 12.8042C9.14687 12.6373 9.28645 12.4869 9.47998 12.3743C9.67515 12.2608 9.87825 12.2143 10.0859 12.1913C10.2792 12.1699 10.5117 12.1659 10.777 12.1614L10.7982 12.161C11.6352 12.1466 12.0738 12.0934 12.4175 11.951C13.1118 11.6634 13.6633 11.1118 13.9509 10.4176C14.0483 10.1824 14.106 9.89586 14.136 9.45646C14.1663 9.01257 14.1666 8.45006 14.1666 7.66665V6.99998C14.1666 5.89915 14.1661 5.10865 14.1074 4.49204C14.0495 3.88287 13.9384 3.49525 13.7491 3.18623C13.5154 2.80499 13.1949 2.48446 12.8137 2.25083C12.5046 2.06147 12.117 1.95039 11.5079 1.89247C10.8913 1.83384 10.1007 1.83331 8.99992 1.83331H6.99992C5.89909 1.83331 5.10859 1.83384 4.49198 1.89247ZM4.83325 5.99998C4.83325 5.72384 5.05711 5.49998 5.33325 5.49998H10.6666C10.9427 5.49998 11.1666 5.72384 11.1666 5.99998C11.1666 6.27612 10.9427 6.49998 10.6666 6.49998H5.33325C5.05711 6.49998 4.83325 6.27612 4.83325 5.99998ZM4.83325 8.33331C4.83325 8.05717 5.05711 7.83331 5.33325 7.83331H8.99992C9.27606 7.83331 9.49992 8.05717 9.49992 8.33331C9.49992 8.60946 9.27606 8.83331 8.99992 8.83331H5.33325C5.05711 8.83331 4.83325 8.60946 4.83325 8.33331Z" fill="#014EE6"/>
</g>
<defs>
<clipPath id="clip0_1_226">
<rect width="16" height="16" fill="white"/>
</clipPath>
</defs>
</svg>
