<svg width="16" height="16" viewBox="0 0 16 16" fill="none" xmlns="http://www.w3.org/2000/svg">
<g clip-path="url(#clip0_1_218)">
<path fill-rule="evenodd" clip-rule="evenodd" d="M7.96167 0.833313H8.03817C9.5771 0.833305 10.7831 0.833298 11.7241 0.959811C12.6873 1.0893 13.4473 1.35953 14.0438 1.95607C14.6404 2.55261 14.9106 3.31263 15.0401 4.27578C15.1666 5.21678 15.1666 6.4228 15.1666 7.96173V8.03823C15.1666 9.57716 15.1666 10.7832 15.0401 11.7242C14.9106 12.6873 14.6404 13.4473 14.0438 14.0439C13.4473 14.6404 12.6873 14.9107 11.7241 15.0401C10.7831 15.1667 9.5771 15.1667 8.03817 15.1666H7.96167C6.42274 15.1667 5.21671 15.1667 4.27572 15.0401C3.31256 14.9107 2.55255 14.6404 1.95601 14.0439C1.35947 13.4473 1.08924 12.6873 0.95975 11.7242C0.833237 10.7832 0.833244 9.57716 0.833252 8.03823V7.96173C0.833244 6.4228 0.833237 5.21677 0.95975 4.27578C1.08924 3.31263 1.35947 2.55261 1.95601 1.95607C2.55255 1.35953 3.31256 1.0893 4.27572 0.959811C5.21671 0.833298 6.42274 0.833305 7.96167 0.833313ZM4.40897 1.95089C3.5567 2.06548 3.04289 2.28341 2.66312 2.66318C2.28335 3.04295 2.06542 3.55676 1.95083 4.40903C1.83431 5.27568 1.83325 6.4145 1.83325 7.99998C1.83325 9.58546 1.83431 10.7243 1.95083 11.5909C2.06542 12.4432 2.28335 12.957 2.66312 13.3368C3.04289 13.7166 3.5567 13.9345 4.40897 14.0491C5.27562 14.1656 6.41443 14.1666 7.99992 14.1666C9.5854 14.1666 10.7242 14.1656 11.5909 14.0491C12.4431 13.9345 12.9569 13.7166 13.3367 13.3368C13.7165 12.957 13.9344 12.4432 14.049 11.5909C14.1655 10.7243 14.1666 9.58546 14.1666 7.99998C14.1666 6.4145 14.1655 5.27568 14.049 4.40903C13.9344 3.55676 13.7165 3.04295 13.3367 2.66318C12.9569 2.28341 12.4431 2.06548 11.5909 1.95089C10.7242 1.83438 9.5854 1.83331 7.99992 1.83331C6.41443 1.83331 5.27562 1.83438 4.40897 1.95089ZM5.64637 6.97976L7.64637 4.97976C7.84163 4.7845 8.15821 4.7845 8.35347 4.97976L10.3535 6.97976C10.5487 7.17502 10.5487 7.4916 10.3535 7.68687C10.1582 7.88213 9.84163 7.88213 9.64637 7.68687L8.49992 6.54042V10.6666C8.49992 10.9428 8.27606 11.1666 7.99992 11.1666C7.72378 11.1666 7.49992 10.9428 7.49992 10.6666V6.54042L6.35347 7.68687C6.15821 7.88213 5.84163 7.88213 5.64637 7.68687C5.4511 7.4916 5.4511 7.17502 5.64637 6.97976Z" fill="#014EE6"/>
</g>
<defs>
<clipPath id="clip0_1_218">
<rect width="16" height="16" fill="white"/>
</clipPath>
</defs>
</svg>
